# xmcd
#
# Track frame offsets:
#	150
#	12482
#	25794
#	40209
#	54826
#	68689
#	82509
#	95964
#	109672
#	122829
#	135824
#	150004
#	163414
#	177672
#	190699
#	207174
#	221142
#	235679
#	248309
#	262707
#	278269
#	293222
#	308124
#
# Disc length: 4292
#
# Revision: 1
# Processed by: cddbd v1.5.1PL0 Copyright (c) Steve Scherf et al.
# Submitted via: dBpowerAMP V4.0
# Normalized: r0:TDELIM( - )
#
DISCID=2310c217
DTITLE=Various Artist - Dance 100, CD2
DYEAR=1900
DGENRE=Dance
TTITLE0=R.O.O.S. - Instant Moments
TTITLE1=Sash! - Stay
TTITLE2=Equator - Silence
TTITLE3=Fabulous Baker Boys - Oh Boy
TTITLE4=Stacey Chandler - All Of My Love
TTITLE5=Vincent De Moor - Flowtation
TTITLE6=T-Spoon - Rockstar
TTITLE7=666 - Alarma
TTITLE8=Buzzy Bus and Andrew M. - Jump
TTITLE9=Bellini - Samba De Janeiro
TTITLE10=Vinyl Vandals - New York, New York
TTITLE11=Rollercoaster - Keep The Frequency Clear
TTITLE12=M&S and Michelle Douglas - Saturday
TTITLE13=Discodroids - Energy
TTITLE14=Tanya Louise - Deep In You
TTITLE15=Disco Macabre - The Deejay's
TTITLE16=Rob 'N' Hood - Vicious Games
TTITLE17=Real DJ - You Make Me Feel
TTITLE18=Angel Moreas - I Like It
TTITLE19=Jaydee - Plastic Dreams '97
TTITLE20=Porn Kings - Up To No Good
TTITLE21=Pulp Victim - Dreams Last For Long
TTITLE22=VDM - Magnetic
EXTD=
EXTT0=
EXTT1=
EXTT2=
EXTT3=
EXTT4=
EXTT5=
EXTT6=
EXTT7=
EXTT8=
EXTT9=
EXTT10=
EXTT11=
EXTT12=
EXTT13=
EXTT14=
EXTT15=
EXTT16=
EXTT17=
EXTT18=
EXTT19=
EXTT20=
EXTT21=
EXTT22=
PLAYORDER=
